# Blender v2.76 (sub 0) OBJ File: ''
# www.blender.org
mtllib obstacles_hardsingle.mtl
o Cube.001_Cube.002
v -400.000000 720.000000 -9.999969
v -400.000000 480.000000 -9.999979
v -400.000000 480.000000 10.000021
v 400.000000 720.000000 -9.999969
v 400.000000 480.000000 -9.999979
v 400.000000 720.000000 10.000031
v 400.000000 480.000000 10.000021
v -400.000000 720.000000 10.000031
v -400.000000 320.000000 -9.999986
v -400.000000 80.000000 -9.999996
v -400.000000 80.000000 10.000004
v -200.000000 320.000000 -9.999986
v -200.000000 80.000000 -9.999996
v -200.000000 320.000000 10.000014
v -200.000000 80.000000 10.000004
v -400.000000 320.000000 10.000014
v 200.000000 320.000000 -9.999986
v 200.000000 80.000000 -9.999996
v 200.000000 80.000000 10.000004
v 400.000000 320.000000 -9.999986
v 400.000000 80.000000 -9.999996
v 400.000000 320.000000 10.000014
v 400.000000 80.000000 10.000004
v 200.000000 320.000000 10.000014
vn -1.000000 0.000000 0.000000
vn 0.000000 0.000000 -1.000000
vn 1.000000 0.000000 0.000000
vn 0.000000 -0.000000 1.000000
vn 0.000000 -1.000000 0.000000
vn 0.000000 1.000000 0.000000
usemtl Material.002
s 1
f 17//1 18//1 19//1
f 20//2 21//2 18//2
f 22//3 23//3 21//3
f 24//4 19//4 23//4
f 18//5 21//5 23//5
f 20//6 17//6 24//6
f 24//1 17//1 19//1
f 17//2 20//2 18//2
f 20//3 22//3 21//3
f 22//4 24//4 23//4
f 19//5 18//5 23//5
f 22//6 20//6 24//6
usemtl Material.001
f 1//1 2//1 3//1
f 4//2 5//2 2//2
f 6//3 7//3 5//3
f 8//4 3//4 7//4
f 2//5 5//5 7//5
f 4//6 1//6 8//6
f 8//1 1//1 3//1
f 1//2 4//2 2//2
f 4//3 6//3 5//3
f 6//4 8//4 7//4
f 3//5 2//5 7//5
f 6//6 4//6 8//6
usemtl Material.003
f 9//1 10//1 11//1
f 12//2 13//2 10//2
f 14//3 15//3 13//3
f 16//4 11//4 15//4
f 10//5 13//5 15//5
f 12//6 9//6 16//6
f 16//1 9//1 11//1
f 9//2 12//2 10//2
f 12//3 14//3 13//3
f 14//4 16//4 15//4
f 11//5 10//5 15//5
f 14//6 12//6 16//6
