# Blender v2.76 (sub 0) OBJ File: ''
# www.blender.org
mtllib obstacles_hard.mtl
o Obstacles_Hard.002
v 120.000000 -50.000000 -200.000000
v 120.000000 -50.000000 -150.000000
v 120.000000 50.000000 -150.000000
v 120.000000 50.000000 -200.000000
v 220.000000 50.000000 -200.000000
v 220.000000 -50.000000 -200.000000
v 220.000000 50.000000 -150.000000
v 220.000000 -50.000000 -150.000000
vn -1.000000 0.000000 0.000000
vn 0.000000 0.000000 -1.000000
vn 1.000000 0.000000 0.000000
vn 0.000000 0.000000 1.000000
vn 0.000000 -1.000000 0.000000
vn 0.000000 1.000000 0.000000
usemtl None
s off
f 1//1 2//1 3//1
f 3//1 4//1 1//1
f 4//2 5//2 6//2
f 6//2 1//2 4//2
f 5//3 7//3 8//3
f 8//3 6//3 5//3
f 2//4 8//4 7//4
f 7//4 3//4 2//4
f 2//5 1//5 6//5
f 6//5 8//5 2//5
f 7//6 5//6 4//6
f 4//6 3//6 7//6
o Obstacles_Hard.001
v 120.000000 -50.000000 150.000000
v 120.000000 -50.000000 200.000000
v 120.000000 50.000000 200.000000
v 120.000000 50.000000 150.000000
v 220.000000 50.000000 150.000000
v 220.000000 -50.000000 150.000000
v 220.000000 50.000000 200.000000
v 220.000000 -50.000000 200.000000
vn -1.000000 0.000000 0.000000
vn 0.000000 0.000000 -1.000000
vn 1.000000 0.000000 0.000000
vn 0.000000 0.000000 1.000000
vn 0.000000 -1.000000 0.000000
vn 0.000000 1.000000 0.000000
usemtl None
s off
f 9//7 10//7 11//7
f 11//7 12//7 9//7
f 12//8 13//8 14//8
f 14//8 9//8 12//8
f 13//9 15//9 16//9
f 16//9 14//9 13//9
f 10//10 16//10 15//10
f 15//10 11//10 10//10
f 10//11 9//11 14//11
f 14//11 16//11 10//11
f 15//12 13//12 12//12
f 12//12 11//12 15//12
o Obstacles_Hard
v 550.000000 -50.000000 -100.000000
v 550.000000 -50.000000 100.000000
v 550.000000 50.000000 100.000000
v 550.000000 50.000000 -100.000000
v 650.000000 50.000000 -100.000000
v 650.000000 -50.000000 -100.000000
v 650.000000 50.000000 100.000000
v 650.000000 -50.000000 100.000000
vn -1.000000 0.000000 0.000000
vn 0.000000 0.000000 -1.000000
vn 1.000000 0.000000 0.000000
vn 0.000000 0.000000 1.000000
vn 0.000000 -1.000000 0.000000
vn 0.000000 1.000000 0.000000
usemtl None
s off
f 17//13 18//13 19//13
f 19//13 20//13 17//13
f 20//14 21//14 22//14
f 22//14 17//14 20//14
f 21//15 23//15 24//15
f 24//15 22//15 21//15
f 18//16 24//16 23//16
f 23//16 19//16 18//16
f 18//17 17//17 22//17
f 22//17 24//17 18//17
f 23//18 21//18 20//18
f 20//18 19//18 23//18
