# Blender v2.76 (sub 0) OBJ File: ''
# www.blender.org
mtllib obstacles_easy.mtl
o Obstacles_Easy
v 600.000000 -100.000000 -100.000000
v 600.000000 -100.000000 100.000000
v 600.000000 100.000000 100.000000
v 600.000000 100.000000 -100.000000
v 800.000000 100.000000 -100.000000
v 800.000000 -100.000000 -100.000000
v 800.000000 100.000000 100.000000
v 800.000000 -100.000000 100.000000
vn -1.000000 0.000000 0.000000
vn 0.000000 0.000000 -1.000000
vn 1.000000 0.000000 0.000000
vn 0.000000 0.000000 1.000000
vn 0.000000 -1.000000 0.000000
vn 0.000000 1.000000 0.000000
usemtl None
s off
f 1//1 2//1 3//1
f 3//1 4//1 1//1
f 4//2 5//2 6//2
f 6//2 1//2 4//2
f 5//3 7//3 8//3
f 8//3 6//3 5//3
f 2//4 8//4 7//4
f 7//4 3//4 2//4
f 2//5 1//5 6//5
f 6//5 8//5 2//5
f 7//6 5//6 4//6
f 4//6 3//6 7//6
