# Blender v2.76 (sub 0) OBJ File: ''
# www.blender.org
mtllib obstacles_hardsingle.mtl
o Obstacles_Hard
v 120.000000 -50.000000 150.000000
v 120.000000 -50.000000 200.000000
v 120.000000 50.000000 200.000000
v 120.000000 50.000000 150.000000
v 220.000000 50.000000 150.000000
v 220.000000 -50.000000 150.000000
v 220.000000 50.000000 200.000000
v 220.000000 -50.000000 200.000000
v 120.000000 -50.000000 -200.000000
v 120.000000 -50.000000 -150.000000
v 120.000000 50.000000 -150.000000
v 120.000000 50.000000 -200.000000
v 220.000000 50.000000 -200.000000
v 220.000000 -50.000000 -200.000000
v 220.000000 50.000000 -150.000000
v 220.000000 -50.000000 -150.000000
v 550.000000 -50.000000 -100.000000
v 550.000000 -50.000000 100.000000
v 550.000000 50.000000 100.000000
v 550.000000 50.000000 -100.000000
v 650.000000 50.000000 -100.000000
v 650.000000 -50.000000 -100.000000
v 650.000000 50.000000 100.000000
v 650.000000 -50.000000 100.000000
vn -1.000000 0.000000 0.000000
vn 0.000000 0.000000 -1.000000
vn 1.000000 0.000000 0.000000
vn 0.000000 0.000000 1.000000
vn 0.000000 -1.000000 0.000000
vn 0.000000 1.000000 0.000000
usemtl None
s off
f 1//1 2//1 3//1
f 3//1 4//1 1//1
f 4//2 5//2 6//2
f 6//2 1//2 4//2
f 5//3 7//3 8//3
f 8//3 6//3 5//3
f 2//4 8//4 7//4
f 7//4 3//4 2//4
f 2//5 1//5 6//5
f 6//5 8//5 2//5
f 7//6 5//6 4//6
f 4//6 3//6 7//6
f 9//1 10//1 11//1
f 11//1 12//1 9//1
f 12//2 13//2 14//2
f 14//2 9//2 12//2
f 13//3 15//3 16//3
f 16//3 14//3 13//3
f 10//4 16//4 15//4
f 15//4 11//4 10//4
f 10//5 9//5 14//5
f 14//5 16//5 10//5
f 15//6 13//6 12//6
f 12//6 11//6 15//6
f 17//1 18//1 19//1
f 19//1 20//1 17//1
f 20//2 21//2 22//2
f 22//2 17//2 20//2
f 21//3 23//3 24//3
f 24//3 22//3 21//3
f 18//4 24//4 23//4
f 23//4 19//4 18//4
f 18//5 17//5 22//5
f 22//5 24//5 18//5
f 23//6 21//6 20//6
f 20//6 19//6 23//6
