# Blender v2.76 (sub 0) OBJ File: ''
# www.blender.org
mtllib obstacles_hardsingle.mtl
o Obstacles_Hard_Single_Obstacles_Hard_Test.014
v 49.999992 -49.999977 -275.000000
v 49.999992 -49.999985 -174.999985
v 49.999992 50.000015 -174.999985
v 49.999992 50.000023 -275.000000
v 150.000000 50.000023 -275.000000
v 150.000000 -49.999977 -275.000000
v 150.000000 50.000015 -174.999985
v 150.000000 -49.999985 -174.999985
v -125.000015 -49.999977 -275.000000
v -125.000015 -49.999985 -174.999985
v -125.000015 50.000015 -174.999985
v -125.000015 50.000023 -275.000000
v -25.000000 50.000023 -275.000000
v -25.000000 -49.999977 -275.000000
v -25.000000 50.000015 -174.999985
v -25.000000 -49.999985 -174.999985
v -275.000000 -49.999992 -125.000008
v -275.000000 -50.000000 -25.000011
v -275.000000 50.000000 -25.000004
v -275.000000 50.000008 -125.000008
v -174.999985 50.000008 -125.000008
v -174.999985 -49.999992 -125.000008
v -174.999985 50.000000 -25.000004
v -174.999985 -50.000000 -25.000011
v 175.000000 -49.999992 -125.000000
v 175.000000 -50.000000 -25.000004
v 175.000000 50.000000 -24.999996
v 175.000000 50.000008 -125.000000
v 275.000000 50.000008 -125.000000
v 275.000000 -49.999992 -125.000000
v 275.000000 50.000000 -24.999996
v 275.000000 -50.000000 -25.000004
v 175.000000 -50.000000 24.999996
v 175.000000 -50.000008 125.000000
v 175.000000 49.999992 125.000000
v 175.000000 50.000000 25.000004
v 275.000000 50.000000 25.000004
v 275.000000 -50.000000 24.999996
v 275.000000 49.999992 125.000000
v 275.000000 -50.000008 125.000000
v -275.000000 -50.000000 24.999996
v -275.000000 -50.000008 125.000000
v -275.000000 49.999992 125.000000
v -275.000000 50.000000 25.000004
v -175.000000 50.000000 25.000004
v -175.000000 -50.000000 24.999996
v -175.000000 49.999992 125.000000
v -175.000000 -50.000008 125.000000
v 50.000000 -50.000015 175.000000
v 50.000000 -50.000023 275.000000
v 50.000000 49.999977 275.000000
v 50.000000 49.999985 175.000000
v 150.000000 49.999985 175.000000
v 150.000000 -50.000015 175.000000
v 150.000000 49.999977 275.000000
v 150.000000 -50.000023 275.000000
v -150.000000 -50.000015 175.000000
v -150.000000 -50.000023 275.000000
v -150.000000 49.999977 275.000000
v -150.000000 49.999985 175.000000
v -50.000000 49.999985 175.000000
v -50.000000 -50.000015 175.000000
v -50.000000 49.999977 275.000000
v -50.000000 -50.000023 275.000000
vn -1.000000 -0.000000 0.000000
vn 0.000000 0.000000 -1.000000
vn 1.000000 0.000000 0.000000
vn 0.000000 0.000000 1.000000
vn 0.000000 -1.000000 -0.000000
vn 0.000000 1.000000 0.000000
usemtl Material.007
s 1
f 41//1 42//1 43//1
f 43//1 44//1 41//1
f 44//2 45//2 46//2
f 46//2 41//2 44//2
f 45//3 47//3 48//3
f 48//3 46//3 45//3
f 42//4 48//4 47//4
f 47//4 43//4 42//4
f 42//5 41//5 46//5
f 46//5 48//5 42//5
f 47//6 45//6 44//6
f 44//6 43//6 47//6
usemtl Material.004
f 1//1 2//1 3//1
f 3//1 4//1 1//1
f 4//2 5//2 6//2
f 6//2 1//2 4//2
f 5//3 7//3 8//3
f 8//3 6//3 5//3
f 2//4 8//4 7//4
f 7//4 3//4 2//4
f 2//5 1//5 6//5
f 6//5 8//5 2//5
f 7//6 5//6 4//6
f 4//6 3//6 7//6
usemtl Material.003
f 9//1 10//1 11//1
f 11//1 12//1 9//1
f 12//2 13//2 14//2
f 14//2 9//2 12//2
f 13//3 15//3 16//3
f 16//3 14//3 13//3
f 10//4 16//4 15//4
f 15//4 11//4 10//4
f 10//5 9//5 14//5
f 14//5 16//5 10//5
f 15//6 13//6 12//6
f 12//6 11//6 15//6
usemtl Material.005
f 17//1 18//1 19//1
f 19//1 20//1 17//1
f 20//2 21//2 22//2
f 22//2 17//2 20//2
f 21//3 23//3 24//3
f 24//3 22//3 21//3
f 18//4 24//4 23//4
f 23//4 19//4 18//4
f 18//5 17//5 22//5
f 22//5 24//5 18//5
f 23//6 21//6 20//6
f 20//6 19//6 23//6
usemtl Material.002
f 25//1 26//1 27//1
f 27//1 28//1 25//1
f 28//2 29//2 30//2
f 30//2 25//2 28//2
f 29//3 31//3 32//3
f 32//3 30//3 29//3
f 26//4 32//4 31//4
f 31//4 27//4 26//4
f 26//5 25//5 30//5
f 30//5 32//5 26//5
f 31//6 29//6 28//6
f 28//6 27//6 31//6
usemtl Material.001
f 33//1 34//1 35//1
f 35//1 36//1 33//1
f 36//2 37//2 38//2
f 38//2 33//2 36//2
f 37//3 39//3 40//3
f 40//3 38//3 37//3
f 34//4 40//4 39//4
f 39//4 35//4 34//4
f 34//5 33//5 38//5
f 38//5 40//5 34//5
f 39//6 37//6 36//6
f 36//6 35//6 39//6
usemtl Material.008
f 49//1 50//1 51//1
f 51//1 52//1 49//1
f 52//2 53//2 54//2
f 54//2 49//2 52//2
f 53//3 55//3 56//3
f 56//3 54//3 53//3
f 50//4 56//4 55//4
f 55//4 51//4 50//4
f 50//5 49//5 54//5
f 54//5 56//5 50//5
f 55//6 53//6 52//6
f 52//6 51//6 55//6
usemtl Material.006
f 57//1 58//1 59//1
f 59//1 60//1 57//1
f 60//2 61//2 62//2
f 62//2 57//2 60//2
f 61//3 63//3 64//3
f 64//3 62//3 61//3
f 58//4 64//4 63//4
f 63//4 59//4 58//4
f 58//5 57//5 62//5
f 62//5 64//5 58//5
f 63//6 61//6 60//6
f 60//6 59//6 63//6
