# Blender v2.76 (sub 0) OBJ File: ''
# www.blender.org
mtllib obstacles_easy.mtl
o Obstacles_Easy_Cube.001
v 155.000000 1200.000000 50.000000
v 155.000000 1200.000000 -50.000000
v 155.000000 0.000002 -50.000000
v 155.000000 -0.000002 50.000000
v 505.000000 1200.000000 -50.000000
v 505.000000 0.000002 -50.000000
v 505.000000 1200.000000 50.000000
v 505.000000 -0.000002 50.000000
vn -1.000000 0.000000 0.000000
vn 0.000000 0.000000 -1.000000
vn 1.000000 0.000000 0.000000
vn 0.000000 -0.000000 1.000000
vn 0.000000 -1.000000 -0.000000
vn 0.000000 1.000000 0.000000
usemtl Material.002
s 1
f 2//1 3//1 4//1
f 5//2 6//2 3//2
f 7//3 8//3 6//3
f 1//4 4//4 8//4
f 3//5 6//5 8//5
f 5//6 2//6 1//6
f 1//1 2//1 4//1
f 2//2 5//2 3//2
f 5//3 7//3 6//3
f 7//4 1//4 8//4
f 4//5 3//5 8//5
f 7//6 5//6 1//6
